<?xml version="1.0" encoding="UTF-8"?>
<svg id="Layer_1" xmlns="http://www.w3.org/2000/svg" version="1.1" viewBox="0 0 50 50">
  <!-- Generator: Adobe Illustrator 30.1.0, SVG Export Plug-In . SVG Version: 2.1.1 Build 136)  -->
  <defs>
    <style>
      .st0 {
        fill: none;
        stroke: #fff;
        stroke-linecap: round;
        stroke-linejoin: round;
        stroke-width: 2px;
      }
.st1 {
        fill: #fff;
      }
    </style>
  </defs>
  <path class="st0" d="M24.5891772,41.042752h-.0078867c-3.0489294,0-5.9019592-.8414458-8.3382096-2.3047751l.0736263.0407577-.5929572-.3510413-6.1465045,1.6132099,1.6395057-5.9939921-.3865397-.6139943c-1.5579908-2.448083-2.4835821-5.4312753-2.4835821-8.6314018,0-8.9692952,7.2719386-16.2412331,16.2412337-16.2412331s16.2412344,7.2719392,16.2412344,16.2412331-7.2706251,16.2412318-16.2412344,16.2412318h0l.001314.000005Z"/>
  <path class="st1" d="M33.4979915,28.8799031c-.4877764-.2445465-2.888529-1.4238856-3.3355476-1.5882306-.4483327-.163031-.7743947-.2432299-1.1004542.2458605-.3234314.4877764-1.2595406,1.5869166-1.5448423,1.9129761-.2839877.327376-.570606.3668172-1.0583824.1235873-1.5119738-.6126778-2.8109581-1.4291443-3.9403362-2.4349351l.0131479.0118339c-1.0504932-.9729223-1.9511045-2.0865244-2.6781663-3.3145105l-.0368131-.0683676c-.2839877-.4877764-.0302392-.7520435.2129908-.9952735.2195647-.2182507.4890905-.570606.7323217-.8545937.1919549-.235342.3562999-.5048677.4812025-.7941153l.007888-.0223512c.056535-.114384.0894035-.2471746.0894035-.3891684,0-.172233-.0486457-.3326347-.1327906-.4693699l.0026293.0039446c-.1235873-.2445452-1.0991402-2.6479271-1.5053998-3.626108-.3970577-.9518864-.8006893-.8217252-1.0991402-.8375024-.2839877-.0131479-.6100484-.0157772-.9361092-.0157772-.5193309.0131479-.9808115.2471746-1.298983.6087344l-.0013153.0026293c-1.0544378,1.0005321-1.7091886,2.4112698-1.7091886,3.97452,0,.0341838,0,.0696829.0013153.1038667v-.0052587c.172233,1.9287533.8953514,3.6602918,2.0076395,5.0710295l-.0157772-.0197206c2.1088756,3.1278143,4.9198324,5.6298029,8.2185669,7.3153275l.1235873.0565337c.7204891.3260595,1.6434503.6744727,2.5874487.9729223l.1958995.0539057c.5811233.1840656,1.2503373.2905629,1.9445305.2905629.3983717,0,.7901707-.0354991,1.1688218-.1025501l-.0407577.0052587c1.405479-.293191,2.5716702-1.1412119,3.282956-2.2995164l.0118339-.0223512c.2169366-.4812012.343152-1.0426039.343152-1.632933,0-.2432299-.0210371-.4812012-.0617949-.7125998l.0039446.0249793c-.1209567-.2037887-.4470187-.3247454-.9361092-.570606l.0026281-.0026331Z"/>
</svg>